<svg version="1.2" xmlns="http://www.w3.org/2000/svg" viewBox="0 0 65 66" width="65" height="66">
	<style>
		.s0 { fill: #fff394 } 
	</style>
	<g>
		<path class="s0" d="m19.16 0.15c-0.09 0.07-0.15 0.94-0.15 1.9v1.78l-3.7 0.05-3.72 0.06-0.1 1.91-0.1 1.92-1.82 0.06-1.84 0.07v3.8 3.83h-1.86c-1.75 0-1.86 0.02-1.98 0.47-0.07 0.28-0.13 2.04-0.13 3.93v3.47h1.98 1.99l0.04-3.87 0.06-3.87h1.78l1.78-0.02 0.06-3.87 0.04-3.9 3.82-0.04 3.8-0.06 0.11-1.92 0.1-1.91h11.18 11.18l0.1 1.91 0.11 1.92 3.8 0.06 3.82 0.04 0.04 3.9 0.06 3.87 1.57 0.04c0.86 0 1.69 0.04 1.84 0.04 0.19 0.02 0.25 0.94 0.25 3.85v3.83h1.99 1.98v-3.59c0-1.98-0.06-3.75-0.13-3.94-0.1-0.28-0.48-0.34-1.98-0.34h-1.86v-3.83-3.8l-1.82-0.07-1.84-0.06-0.1-1.92-0.1-1.91-3.7-0.06c-3.37-0.05-3.72-0.09-3.74-0.43 0-0.19 0-0.87 0.02-1.47 0.06-2.19 1.34-1.97-11.47-1.97-6.18 0-11.3 0.06-11.36 0.14z"/>
		<path class="s0" d="m11.28 25.1v1.92h-1.88c-1.36 0-1.88 0.06-1.88 0.25 0 0.15-0.04 2.77-0.06 5.81l-0.04 5.53h-1.74-1.75l-0.02-7.55-0.05-7.55h-1.88-1.88l-0.06 7.59-0.04 7.61h1.86 1.88l0.06 1.85 0.06 1.87 1.88 0.11 1.88 0.11 0.11 1.91 0.1 1.91 1.84 0.07 1.82 0.06v5.72 5.75h1.23c0.67 0 1.51 0.06 1.86 0.12l0.65 0.13 0.06 1.85 0.06 1.83h15.15 15.15l0.06-1.98c0.02-1.08-0.02-1.95-0.11-1.93-0.08 0.02-1.79 0.02-3.76 0l-3.61-0.02v-1.92-1.91h-1.99-1.98v1.91 1.92h-3.76-3.76v-1.92-1.91h-1.98-1.99v1.91c0 1.13-0.08 1.92-0.21 1.92-0.1 0-1.71 0.02-3.55 0.02-1.84 0-3.43-0.02-3.53-0.02-0.1 0-0.21-2.34-0.21-5.6 0-3.06 0-5.7-0.02-5.85 0-0.21-0.46-0.25-1.82-0.21l-1.84 0.06v-1.8-1.81l5.64-0.04 5.64-0.07 0.07-1.91 0.06-1.92h1.86 1.88v-7.86-7.87h-7.73-7.73zm0 15.63v1.81h-1.77-1.78v-1.81-1.81h1.78 1.77z"/>
		<path class="s0" d="m34.26 31.06v7.86h1.88 1.86l0.06 1.92 0.07 1.93 5.64 0.05 5.64 0.04 0.06 1.74c0.04 0.98-0.02 1.77-0.11 1.79-0.08 0-0.92 0.04-1.83 0.06-0.92 0.05-1.76 0.09-1.84 0.09-0.09 0.02-0.15 2.59-0.11 5.72l0.07 5.7 1.46 0.11c0.81 0.06 1.67 0.08 1.94 0.04l0.46-0.07v-5.72-5.72l1.84-0.06 1.82-0.07 0.06-1.85c0.06-2.14-0.04-2.04 2.44-2.12l1.47-0.07 0.06-1.87 0.06-1.85h1.86 1.88v-7.65-7.66h-1.86c-1.55 0-1.88 0.06-1.98 0.36-0.09 0.19-0.13 3.62-0.13 7.59l0.04 7.26-1.67 0.06-1.65 0.06-0.15-0.89c-0.08-0.49-0.12-3.1-0.12-5.81l0.02-4.91-1.88-0.06-1.9-0.07v-1.89-1.91h-7.73-7.73zm19.01 9.67v1.81h-1.78-1.77v-1.81-1.8h1.77 1.78z"/>
		<path class="s0" d="m26.68 42.67c-0.09 0.08-0.15 1.91-0.15 4.06v3.89h3.97 3.97l-0.04-4-0.07-3.97-3.78-0.07c-2.06-0.02-3.82 0.02-3.9 0.09z"/>
	</g>
</svg>