<svg version="1.2" xmlns="http://www.w3.org/2000/svg" viewBox="0 0 66 54" width="66" height="54">
	<style>
		.s0 { fill: #fff394;stroke: #fff394;stroke-width: .4 } 
	</style>
	<g>
		<path class="s0" d="m4.7 39.08v-2.17l-1.07-0.06-1.15-0.06h-0.06v-0.07l-0.06-15.84-0.04-15.83v-0.07h2.71v31.57h9.61v-2.39h-7.35v-0.07l0.04-15.84 0.06-15.83v-0.06l0.06-0.01 3.64-0.06 3.55-0.04v-2.18h-9.61v2.52h-4.96v36.49z"/>
		<path class="s0" d="m59.58 36.79h-0.06l-1.13 0.06-1.09 0.06v2.17h4.63v-36.49h-4.96v-2.52h-9.61v2.18l3.57 0.04 3.62 0.06 0.06 0.01 0.01 0.06 0.05 15.83 0.04 15.84v0.07h-7.35v2.39h9.61v-31.57h2.71v0.07l-0.04 15.83-0.06 15.84z"/>
		<path class="s0" d="m19.61 4.98v-2.39h-4.64v2.39z"/>
		<path class="s0" d="m47.03 4.98v-2.39h-4.64v2.39z"/>
		<path class="s0" d="m24.57 7.51v-2.18h-4.63v2.18z"/>
		<path class="s0" d="m42.06 7.51v-2.18h-4.63v2.18z"/>
		<path class="s0" d="m27.16 10.25v-2.4h-2.25v2.4z"/>
		<path class="s0" d="m37.09 10.25v-2.4h-2.25v2.4z"/>
		<path class="s0" d="m14.64 12.77v-2.18h-4.64v2.18z"/>
		<path class="s0" d="m29.54 12.77v-2.18h-2.05v2.18z"/>
		<path class="s0" d="m34.51 12.77v-2.18h-2.05v2.18z"/>
		<path class="s0" d="m52 12.77v-2.18h-4.64v2.18z"/>
		<path class="s0" d="m19.61 15.51v-2.4h-4.64v2.4z"/>
		<path class="s0" d="m29.53 49.6l0.05-1.16 0.06-1.2v-0.06h2.72v0.06l0.06 1.2 0.05 1.16h4.62v-2.16l-1.17-0.06-1.25-0.07h-0.06v-0.06l-0.06-1.33-0.06-1.24h-2.36v-31.56l-2.26-0.01v31.57h-2.36l-0.06 1.24-0.06 1.33v0.06h-0.06l-1.24 0.07-1.18 0.06v2.16z"/>
		<path class="s0" d="m47.03 15.51v-2.4h-4.64v2.4z"/>
		<path class="s0" d="m24.57 18.03v-2.18h-4.63v2.18z"/>
		<path class="s0" d="m42.06 18.03v-2.18h-4.63v2.18z"/>
		<path class="s0" d="m14.64 20.77v-2.39h-4.64v2.39z"/>
		<path class="s0" d="m27.16 20.77v-2.39h-2.25v2.39z"/>
		<path class="s0" d="m37.09 20.77v-2.39h-2.25v2.39z"/>
		<path class="s0" d="m52 20.77v-2.39h-4.64v2.39z"/>
		<path class="s0" d="m19.61 23.29v-2.18h-4.64v2.18z"/>
		<path class="s0" d="m47.03 23.29v-2.18h-4.64v2.18z"/>
		<path class="s0" d="m24.57 26.03v-2.39h-4.63v2.39z"/>
		<path class="s0" d="m42.06 26.03v-2.39h-4.63v2.39z"/>
		<path class="s0" d="m14.64 28.56v-2.19h-4.64v2.19z"/>
		<path class="s0" d="m27.16 28.56v-2.19h-2.25v2.19z"/>
		<path class="s0" d="m37.09 28.56v-2.19h-2.25v2.19z"/>
		<path class="s0" d="m52 28.56v-2.19h-4.64v2.19z"/>
		<path class="s0" d="m19.61 31.29v-2.39h-4.64v2.39z"/>
		<path class="s0" d="m47.03 31.29v-2.39h-4.64v2.39z"/>
		<path class="s0" d="m24.57 33.82v-2.19h-4.63v2.19z"/>
		<path class="s0" d="m42.06 33.82v-2.19h-4.63v2.19z"/>
		<path class="s0" d="m27.16 36.55v-2.39h-2.25v2.39z"/>
		<path class="s0" d="m37.09 36.55v-2.39h-2.25v2.39z"/>
		<path class="s0" d="m19.61 39.08v-2.18h-4.64v2.18z"/>
		<path class="s0" d="m47.03 39.08v-2.18h-4.64v2.18z"/>
		<path class="s0" d="m14.64 41.81v-2.39h-9.61v2.39z"/>
		<path class="s0" d="m24.57 41.81v-2.39h-4.63v2.39z"/>
		<path class="s0" d="m42.06 41.81v-2.39h-4.63v2.39z"/>
		<path class="s0" d="m56.97 41.81v-2.39h-9.61v2.39z"/>
		<path class="s0" d="m19.61 44.34v-2.18h-4.64v2.18z"/>
		<path class="s0" d="m27.16 44.34v-2.18h-2.25v2.18z"/>
		<path class="s0" d="m37.09 44.34v-2.18h-2.25v2.18z"/>
		<path class="s0" d="m47.03 44.34v-2.18h-4.64v2.18z"/>
		<path class="s0" d="m24.57 47.08v-2.4h-4.63v2.4z"/>
		<path class="s0" d="m42.06 47.08v-2.4h-4.63v2.4z"/>
	</g>
</svg>