<svg version="1.2" xmlns="http://www.w3.org/2000/svg" viewBox="0 0 62 61" width="62" height="61">
	<defs>
		<clipPath clipPathUnits="userSpaceOnUse" id="cp1">
			<path d="m50.22 0.08q1.14 0 2.3 0 0 0.16 0 0.32 0.31-0.08 0.63-0.16c0.85-0.18 1.67-0.22 2.54-0.22q0.21-0.01 0.44-0.01c0.2-0.01 0.2-0.01 0.42-0.01 0.18 0 0.18 0 0.38 0 0.5 0.11 0.68 0.33 1 0.72 0.08 0.42 0.08 0.42 0.06 0.89q0 0.26-0.01 0.54-0.01 0.28-0.02 0.57 0 0.3-0.01 0.6-0.03 0.93-0.06 1.87-0.01 0.64-0.03 1.27-0.04 1.56-0.09 3.12-1.37 0-2.79 0c0.01 0.84 0.01 0.84 0.03 1.67q0 0.46-0.03 0.91c-0.33 0.32-0.33 0.32-0.63 0.36-0.19 0-0.19 0-0.37-0.01q-0.18 0-0.37 0-0.22 0-0.45-0.01c-0.72-0.01-0.72-0.01-1.46-0.02q0 1.43 0 2.9c-1.2 0.07-1.2 0.07-1.57 0.09-0.5 0.03-0.91 0.08-1.38 0.23q0 0.28 0 0.56 0.01 0.36 0.01 0.72 0 0.18 0 0.37 0 0.47-0.01 0.93c-0.35 0.34-1.09 0.23-1.57 0.25q-0.68 0.04-1.38 0.07 0 1.35 0 2.74-1.54 0-3.12 0 0 1.43 0 2.9c-0.73 0.1-1.32 0.18-2.04 0.17q-0.21 0-0.43 0c-0.16 0-0.16 0-0.32-0.01q-0.04 0.37-0.08 0.73-0.02 0.2-0.05 0.41-0.05 0.88-0.03 1.76-1.54 0-3.12 0 0 1.51 0 3.06-0.87-0.01-1.74-0.03c-0.58-0.01-0.58-0.01-1.05 0.36-0.06 0.44-0.1 0.85-0.11 1.3-0.03 0.63-0.03 0.63-0.05 1.27q-1.46 0.08-2.95 0.16c0 0.85 0 0.85 0.01 1.69q0 0.44-0.01 0.89-0.08 0.08-0.17 0.16-1.45 0-2.95 0c0 3.99 0 7.98 0 12.08q-2.67 0-5.41 0 0-0.15 0-0.32-0.41 0-0.82 0 0-1.27 0-2.58c-0.57-0.18-1.1-0.19-1.69-0.21q-0.17 0-0.35-0.01-0.56-0.01-1.11-0.03-0.38-0.01-0.75-0.02-0.92-0.02-1.84-0.05c0.02 0.29 0.02 0.29 0.05 0.58q0.03 0.38 0.06 0.76 0.02 0.19 0.04 0.39 0.01 0.18 0.02 0.37c0.02 0.16 0.02 0.16 0.03 0.34-0.04 0.3-0.04 0.3-0.25 0.58-0.34 0.25-0.51 0.26-0.94 0.25q-0.17 0-0.34 0-0.21-0.01-0.43-0.02-0.67-0.01-1.36-0.03 0 1.35 0 2.74-0.37 0.04-0.76 0.08-0.21 0.03-0.43 0.05-0.71 0.05-1.43 0.03 0 0.24 0 0.48 0.02 0.89 0.02 1.77 0.01 0.38 0.01 0.76 0.01 0.55 0.01 1.1 0.01 0.17 0.01 0.34c0 0.79 0 0.79-0.25 1.14-0.41 0.29-0.68 0.27-1.18 0.27q-0.27 0-0.55 0-0.29-0.01-0.59-0.01-0.3 0-0.6 0-0.96-0.01-1.92-0.02-0.65 0-1.29 0-1.6-0.01-3.19-0.03c-0.2-0.39-0.19-0.67-0.2-1.11-0.01-0.25-0.01-0.25-0.01-0.51q-0.01-0.26-0.02-0.54 0-0.27-0.01-0.56-0.01-0.58-0.02-1.17-0.02-0.89-0.04-1.79-0.02-0.56-0.03-1.13 0-0.27-0.01-0.54-0.01-0.25-0.01-0.51-0.01-0.22-0.01-0.44c0.04-0.43 0.13-0.68 0.36-1.04 0.49-0.24 0.98-0.18 1.51-0.18q0.17 0 0.35 0 0.56 0.01 1.12 0.01 0.37 0 0.75 0 0.92 0 1.85 0.01c0.19-0.55 0.17-0.97 0.16-1.55q-0.01-0.51 0-1.03c0.17-0.16 0.17-0.16 0.47-0.18q0.2 0 0.39 0c0.21 0.01 0.21 0.01 0.43 0.01q0.22 0 0.45 0 0.22 0 0.44 0 0.55 0.01 1.1 0.01-0.02-0.29-0.04-0.59-0.02-0.39-0.05-0.77c-0.01-0.19-0.01-0.19-0.03-0.39q-0.03-0.49-0.04-0.99c0.16-0.16 0.16-0.16 0.45-0.18q0.19 0 0.38 0.01c0.17 0 0.17 0 0.36 0 0.23 0 0.23 0 0.46 0 0.73 0.01 0.73 0.01 1.47 0.01q0-2.78 0-5.64-1.54 0-3.12 0c0.08-3.03 0.08-3.03 0.16-6.12 3.9 0 7.8 0 11.81 0q0.08-1.27 0.17-2.58-0.16-0.08-0.33-0.16 0.16 0 0.33 0 0-0.16 0-0.32 1.45 0 2.95 0c-0.01-0.94-0.01-0.94-0.02-1.88 0-0.17 0-0.17 0-0.35q0-0.18 0-0.37c0.02-0.3 0.02-0.3 0.18-0.62q1.3 0 2.63 0 0-1.27 0-2.58 1.61 0 3.28 0c-0.07-0.89-0.07-0.89-0.14-1.77q-0.03-0.48-0.03-0.97c0.47-0.45 0.94-0.4 1.56-0.43q0.17-0.01 0.35-0.02c0.84-0.05 0.84-0.05 1.21 0.13q0-0.29-0.01-0.59 0-0.39 0-0.77 0-0.19 0-0.39 0-0.49 0.01-0.99c0.35-0.34 1.09-0.23 1.57-0.25q0.2-0.01 0.4-0.02 0.49-0.03 0.98-0.05 0.08-1.11 0.17-2.26-0.16 0-0.33 0 0.08-0.31 0.16-0.64 1.54 0.08 3.12 0.16 0-1.66 0-3.38 1.29 0.16 2.62 0.32 0-0.16 0-0.32 0.17 0 0.33 0 0-1.27 0-2.58 1.54 0 3.12 0-0.08-1.43-0.17-2.9 0.17 0 0.33 0 0.08-0.16 0.17-0.32 0.08 0.08 0.16 0.16 0.54 0.06 1.08 0.09 0.29 0.02 0.59 0.04 0.23 0.02 0.46 0.03c0.23-0.67 0.23-1.35 0.27-2.05 0.04-0.83 0.04-0.83 0.22-1.01q0.42-0.02 0.84-0.01 0.22 0 0.45 0 0.18 0.01 0.35 0.01 0-0.16 0-0.32zm-1.47 3.54q0 1.35 0 2.74 1.37 0 2.79 0 0-1.35 0-2.74-1.38 0-2.79 0zm-2.95 2.9c-0.11 0.72-0.19 1.3-0.18 2.01q0.01 0.36 0.01 0.73 1.38 0 2.79 0-0.16-0.08-0.33-0.16 0.16-0.08 0.33-0.16 0-1.19 0-2.42-1.29 0-2.62 0zm-3.12 3.06q0 1.27 0 2.58c0.44 0.22 0.81 0.19 1.3 0.2q0.26 0.01 0.53 0.01c0.46-0.02 0.46-0.02 0.77-0.22 0.29-0.48 0.23-0.92 0.22-1.47q-0.02-0.54-0.03-1.1-1.38 0-2.79 0zm-3.12 2.9q0 1.27 0 2.58c0.53 0.26 1.09 0.18 1.66 0.17 0.19 0 0.19 0 0.38 0q0.46 0 0.92-0.01 0-0.24 0-0.48 0-1.13 0-2.26-1.46 0-2.96 0zm-2.95 2.9q0 1.35 0 2.74 1.37 0 2.79 0 0-1.35 0-2.74-1.37 0-2.79 0zm-2.95 3.06q0 1.35 0 2.74 1.37 0 2.79 0 0-0.63 0.01-1.28 0-0.2 0-0.4 0-0.45-0.01-0.9c-0.2-0.22-0.2-0.22-0.76-0.17q-0.36 0-0.73 0c-0.64 0.01-0.64 0.01-1.3 0.01zm-2.95 2.9c-0.24 1.38-0.24 1.38 0 2.74q1.29 0 2.62 0-0.16-0.08-0.33-0.16 0.16-0.08 0.33-0.16 0-1.19 0-2.42-1.29 0-2.62 0zm-5.74 2.58q0 0.08 0 0.16 0.96 0 1.96 0 0-0.08 0-0.16-0.97 0-1.96 0zm2.62 0.32q0 1.35 0 2.74 1.37 0.08 2.79 0.16 0-0.67 0.01-1.36 0-0.21 0-0.43 0-0.47-0.01-0.95c-0.2-0.23-0.2-0.23-0.76-0.17q-0.36 0-0.73 0c-0.64 0.01-0.64 0.01-1.3 0.01zm-2.95 3.06q-0.01 0.63-0.01 1.28 0 0.2-0.01 0.4 0 0.45 0.02 0.9c0.29 0.28 0.66 0.18 1.04 0.18q0.17 0 0.35 0 0.17 0 0.35 0c0.57 0.05 0.57 0.05 1.05-0.18q0.01-0.65 0.01-1.3c-0.01-0.63-0.01-0.63-0.01-1.28q-1.38 0-2.79 0zm-3.12 2.9q0 0.63-0.01 1.28 0 0.2 0 0.4 0 0.45 0.01 0.9c0.2 0.23 0.2 0.23 0.76 0.18q0.36 0 0.73-0.01c0.64 0 0.64 0 1.3-0.01q0-1.35 0-2.74-1.37 0-2.79 0zm-9.02 3.39q0 1.11 0 2.25c1.05 0.16 2.06 0.17 3.12 0.16q0 1.35 0 2.74c0.66 0.13 1.18 0.18 1.85 0.17 0.46 0 0.46 0 0.93-0.01 0.09 1.44 0.09 1.44 0.17 2.9q1.45 0 2.95 0c-0.01 1.36-0.01 1.36-0.01 1.79q0 0.47 0.01 0.95 0.08 0.08 0.17 0.16 1.29 0 2.62 0 0-2.78 0-5.64-1.37 0-2.79 0c-0.08-1.43-0.08-1.43-0.16-2.9q-1.46 0-2.96 0 0-1.43 0-2.9-1.06-0.01-2.12-0.01-0.36-0.01-0.73-0.01-0.52-0.01-1.04-0.01c-0.31 0-0.31 0-0.63 0-0.62 0.01-0.62 0.01-1.38 0.36zm-8.86 14.01q0 0.08 0 0.16 1.13 0 2.3 0 0-0.08 0-0.16-1.13 0-2.3 0zm1.3 3.3q-0.27 0.02-0.54 0.05c-0.21 0.02-0.21 0.02-0.43 0.03q0 0.16 0 0.33-0.16 0-0.33 0c-0.21 0.42-0.18 0.74-0.18 1.21q0 0.24 0 0.49c-0.03 0.38-0.03 0.38 0.18 0.55q0.62 0.02 1.24 0.01 0.18 0 0.36 0 0.43 0 0.86-0.01 0.05-0.5 0.1-1.01 0.02-0.28 0.05-0.56c0.01-0.45-0.01-0.75-0.15-1.17-0.38 0-0.77 0.05-1.16 0.08zm-1.3-0.08q-0.08 0.16-0.16 0.32 0.16 0 0.33 0-0.08-0.15-0.17-0.32zm5.91 2.58q0 1.51 0 3.06 0.08 0 0.16 0 0-1.51 0-3.06-0.08 0-0.16 0zm26.73-41.08c0.17 0.32 0.17 0.32 0.17 0.32z"/>
		</clipPath>
	</defs>
	<style>
		.s0 { fill: #fff394 } 
		.s1 { fill: none;stroke: #fff394;stroke-width: 2 } 
	</style>
	<g>
		<path class="s0" d="m50.22 0.08q1.14 0 2.3 0 0 0.16 0 0.32 0.31-0.08 0.63-0.16c0.85-0.18 1.67-0.22 2.54-0.22q0.21-0.01 0.44-0.01c0.2-0.01 0.2-0.01 0.42-0.01 0.18 0 0.18 0 0.38 0 0.5 0.11 0.68 0.33 1 0.72 0.08 0.42 0.08 0.42 0.06 0.89q0 0.26-0.01 0.54-0.01 0.28-0.02 0.57 0 0.3-0.01 0.6-0.03 0.93-0.06 1.87-0.01 0.64-0.03 1.27-0.04 1.56-0.09 3.12-1.37 0-2.79 0c0.01 0.84 0.01 0.84 0.03 1.67q0 0.46-0.03 0.91c-0.33 0.32-0.33 0.32-0.63 0.36-0.19 0-0.19 0-0.37-0.01q-0.18 0-0.37 0-0.22 0-0.45-0.01c-0.72-0.01-0.72-0.01-1.46-0.02q0 1.43 0 2.9c-1.2 0.07-1.2 0.07-1.57 0.09-0.5 0.03-0.91 0.08-1.38 0.23q0 0.28 0 0.56 0.01 0.36 0.01 0.72 0 0.18 0 0.37 0 0.47-0.01 0.93c-0.35 0.34-1.09 0.23-1.57 0.25q-0.68 0.04-1.38 0.07 0 1.35 0 2.74-1.54 0-3.12 0 0 1.43 0 2.9c-0.73 0.1-1.32 0.18-2.04 0.17q-0.21 0-0.43 0c-0.16 0-0.16 0-0.32-0.01q-0.04 0.37-0.08 0.73-0.02 0.2-0.05 0.41-0.05 0.88-0.03 1.76-1.54 0-3.12 0 0 1.51 0 3.06-0.87-0.01-1.74-0.03c-0.58-0.01-0.58-0.01-1.05 0.36-0.06 0.44-0.1 0.85-0.11 1.3-0.03 0.63-0.03 0.63-0.05 1.27q-1.46 0.08-2.95 0.16c0 0.85 0 0.85 0.01 1.69q0 0.44-0.01 0.89-0.08 0.08-0.17 0.16-1.45 0-2.95 0c0 3.99 0 7.98 0 12.08q-2.67 0-5.41 0 0-0.15 0-0.32-0.41 0-0.82 0 0-1.27 0-2.58c-0.57-0.18-1.1-0.19-1.69-0.21q-0.17 0-0.35-0.01-0.56-0.01-1.11-0.03-0.38-0.01-0.75-0.02-0.92-0.02-1.84-0.05c0.02 0.29 0.02 0.29 0.05 0.58q0.03 0.38 0.06 0.76 0.02 0.19 0.04 0.39 0.01 0.18 0.02 0.37c0.02 0.16 0.02 0.16 0.03 0.34-0.04 0.3-0.04 0.3-0.25 0.58-0.34 0.25-0.51 0.26-0.94 0.25q-0.17 0-0.34 0-0.21-0.01-0.43-0.02-0.67-0.01-1.36-0.03 0 1.35 0 2.74-0.37 0.04-0.76 0.08-0.21 0.03-0.43 0.05-0.71 0.05-1.43 0.03 0 0.24 0 0.48 0.02 0.89 0.02 1.77 0.01 0.38 0.01 0.76 0.01 0.55 0.01 1.1 0.01 0.17 0.01 0.34c0 0.79 0 0.79-0.25 1.14-0.41 0.29-0.68 0.27-1.18 0.27q-0.27 0-0.55 0-0.29-0.01-0.59-0.01-0.3 0-0.6 0-0.96-0.01-1.92-0.02-0.65 0-1.29 0-1.6-0.01-3.19-0.03c-0.2-0.39-0.19-0.67-0.2-1.11-0.01-0.25-0.01-0.25-0.01-0.51q-0.01-0.26-0.02-0.54 0-0.27-0.01-0.56-0.01-0.58-0.02-1.17-0.02-0.89-0.04-1.79-0.02-0.56-0.03-1.13 0-0.27-0.01-0.54-0.01-0.25-0.01-0.51-0.01-0.22-0.01-0.44c0.04-0.43 0.13-0.68 0.36-1.04 0.49-0.24 0.98-0.18 1.51-0.18q0.17 0 0.35 0 0.56 0.01 1.12 0.01 0.37 0 0.75 0 0.92 0 1.85 0.01c0.19-0.55 0.17-0.97 0.16-1.55q-0.01-0.51 0-1.03c0.17-0.16 0.17-0.16 0.47-0.18q0.2 0 0.39 0c0.21 0.01 0.21 0.01 0.43 0.01q0.22 0 0.45 0 0.22 0 0.44 0 0.55 0.01 1.1 0.01-0.02-0.29-0.04-0.59-0.02-0.39-0.05-0.77c-0.01-0.19-0.01-0.19-0.03-0.39q-0.03-0.49-0.04-0.99c0.16-0.16 0.16-0.16 0.45-0.18q0.19 0 0.38 0.01c0.17 0 0.17 0 0.36 0 0.23 0 0.23 0 0.46 0 0.73 0.01 0.73 0.01 1.47 0.01q0-2.78 0-5.64-1.54 0-3.12 0c0.08-3.03 0.08-3.03 0.16-6.12 3.9 0 7.8 0 11.81 0q0.08-1.27 0.17-2.58-0.16-0.08-0.33-0.16 0.16 0 0.33 0 0-0.16 0-0.32 1.45 0 2.95 0c-0.01-0.94-0.01-0.94-0.02-1.88 0-0.17 0-0.17 0-0.35q0-0.18 0-0.37c0.02-0.3 0.02-0.3 0.18-0.62q1.3 0 2.63 0 0-1.27 0-2.58 1.61 0 3.28 0c-0.07-0.89-0.07-0.89-0.14-1.77q-0.03-0.48-0.03-0.97c0.47-0.45 0.94-0.4 1.56-0.43q0.17-0.01 0.35-0.02c0.84-0.05 0.84-0.05 1.21 0.13q0-0.29-0.01-0.59 0-0.39 0-0.77 0-0.19 0-0.39 0-0.49 0.01-0.99c0.35-0.34 1.09-0.23 1.57-0.25q0.2-0.01 0.4-0.02 0.49-0.03 0.98-0.05 0.08-1.11 0.17-2.26-0.16 0-0.33 0 0.08-0.31 0.16-0.64 1.54 0.08 3.12 0.16 0-1.66 0-3.38 1.29 0.16 2.62 0.32 0-0.16 0-0.32 0.17 0 0.33 0 0-1.27 0-2.58 1.54 0 3.12 0-0.08-1.43-0.17-2.9 0.17 0 0.33 0 0.08-0.16 0.17-0.32 0.08 0.08 0.16 0.16 0.54 0.06 1.08 0.09 0.29 0.02 0.59 0.04 0.23 0.02 0.46 0.03c0.23-0.67 0.23-1.35 0.27-2.05 0.04-0.83 0.04-0.83 0.22-1.01q0.42-0.02 0.84-0.01 0.22 0 0.45 0 0.18 0.01 0.35 0.01 0-0.16 0-0.32zm-1.47 3.54q0 1.35 0 2.74 1.37 0 2.79 0 0-1.35 0-2.74-1.38 0-2.79 0zm-2.95 2.9c-0.11 0.72-0.19 1.3-0.18 2.01q0.01 0.36 0.01 0.73 1.38 0 2.79 0-0.16-0.08-0.33-0.16 0.16-0.08 0.33-0.16 0-1.19 0-2.42-1.29 0-2.62 0zm-3.12 3.06q0 1.27 0 2.58c0.44 0.22 0.81 0.19 1.3 0.2q0.26 0.01 0.53 0.01c0.46-0.02 0.46-0.02 0.77-0.22 0.29-0.48 0.23-0.92 0.22-1.47q-0.02-0.54-0.03-1.1-1.38 0-2.79 0zm-6.4 2.74c0.17 0.32 0.17 0.32 0.17 0.32zm3.28 0.16q0 1.27 0 2.58c0.52 0.26 1.08 0.18 1.66 0.17 0.18 0 0.18 0 0.37 0q0.46 0 0.92-0.01 0-0.23 0-0.48 0-1.13 0-2.26-1.45 0-2.95 0zm-2.95 2.9q0 1.35 0 2.74 1.37 0 2.78 0 0-1.35 0-2.74-1.37 0-2.78 0zm-2.96 3.06q0 1.35 0 2.74 1.38 0 2.79 0 0.01-0.63 0.01-1.28 0-0.19 0.01-0.4 0-0.45-0.02-0.89c-0.19-0.23-0.19-0.23-0.75-0.18q-0.37 0-0.74 0c-0.64 0.01-0.64 0.01-1.3 0.01zm-2.95 2.9c-0.24 1.38-0.24 1.38 0 2.74q1.29 0 2.62 0-0.16-0.08-0.32-0.16 0.16-0.08 0.32-0.16 0-1.19 0-2.42-1.29 0-2.62 0zm-5.74 2.58q0 0.08 0 0.16 0.97 0 1.97 0 0-0.08 0-0.16-0.97 0-1.97 0zm2.62 0.32q0 1.35 0 2.74 1.38 0.08 2.79 0.16 0.01-0.67 0.01-1.36 0-0.21 0.01-0.42 0-0.48-0.02-0.95c-0.19-0.23-0.19-0.23-0.75-0.18q-0.37 0-0.73 0c-0.65 0.01-0.65 0.01-1.31 0.01zm-2.95 3.06q0 0.63-0.01 1.28 0 0.2 0 0.41 0 0.44 0.01 0.89c0.29 0.29 0.66 0.18 1.05 0.19q0.17-0.01 0.35-0.01 0.17 0 0.34 0.01c0.57 0.04 0.57 0.04 1.05-0.19q0.02-0.65 0.01-1.3c0-0.63 0-0.63-0.01-1.28q-1.37 0-2.79 0zm-3.11 2.9q-0.01 0.63-0.02 1.28 0 0.2 0 0.41 0 0.44 0.02 0.89c0.19 0.23 0.19 0.23 0.75 0.18q0.37 0 0.73-0.01c0.65 0 0.65 0 1.3-0.01q0-1.35 0-2.74-1.37 0-2.78 0zm-9.03 3.39q0 1.11 0 2.25c1.05 0.16 2.06 0.18 3.12 0.16q0 1.35 0 2.74c0.67 0.13 1.19 0.18 1.86 0.17 0.46 0 0.46 0 0.93-0.01 0.08 1.44 0.08 1.44 0.16 2.9q1.46 0 2.96 0c-0.02 1.36-0.02 1.36-0.02 1.79q0 0.48 0.02 0.95 0.08 0.08 0.16 0.16 1.29 0 2.62 0 0-2.77 0-5.64-1.37 0-2.78 0c-0.09-1.43-0.09-1.43-0.17-2.9q-1.45 0-2.95 0 0-1.42 0-2.89-1.07-0.02-2.13-0.02-0.36 0-0.72-0.01-0.52 0-1.04-0.01c-0.32 0-0.32 0-0.64 0-0.62 0.01-0.62 0.01-1.38 0.36zm-8.85 14.01q0 0.08 0 0.16 1.13 0 2.29 0 0-0.08 0-0.16-1.13 0-2.29 0zm1.3 3.3q-0.27 0.03-0.55 0.05c-0.21 0.02-0.21 0.02-0.43 0.04q0 0.15 0 0.32-0.16 0-0.32 0c-0.22 0.42-0.19 0.74-0.19 1.22q0 0.23 0 0.48c-0.02 0.38-0.02 0.38 0.19 0.55q0.62 0.02 1.24 0.01 0.17 0 0.35 0 0.43 0 0.87-0.01 0.05-0.5 0.09-1 0.02-0.28 0.05-0.57c0.02-0.44 0-0.75-0.14-1.17-0.39 0-0.78 0.05-1.16 0.08zm-1.3-0.08q-0.08 0.16-0.17 0.33 0.16 0 0.33 0-0.08-0.16-0.16-0.33zm5.9 2.58q0 1.51 0 3.06 0.08 0 0.17 0 0-1.5 0-3.06-0.09 0-0.17 0z"/>
		<g id="Clip-Path" clip-path="url(#cp1)">
			<path class="s1" d="m50.22 0.08q1.14 0 2.3 0 0 0.16 0 0.32 0.31-0.08 0.63-0.16c0.85-0.18 1.67-0.22 2.54-0.22q0.21-0.01 0.44-0.01c0.2-0.01 0.2-0.01 0.42-0.01 0.18 0 0.18 0 0.38 0 0.5 0.11 0.68 0.33 1 0.72 0.08 0.42 0.08 0.42 0.06 0.89q0 0.26-0.01 0.54-0.01 0.28-0.02 0.57 0 0.3-0.01 0.6-0.03 0.93-0.06 1.87-0.01 0.64-0.03 1.27-0.04 1.56-0.09 3.12-1.37 0-2.79 0c0.01 0.84 0.01 0.84 0.03 1.67q0 0.46-0.03 0.91c-0.33 0.32-0.33 0.32-0.63 0.36-0.19 0-0.19 0-0.37-0.01q-0.18 0-0.37 0-0.22 0-0.45-0.01c-0.72-0.01-0.72-0.01-1.46-0.02q0 1.43 0 2.9c-1.2 0.07-1.2 0.07-1.57 0.09-0.5 0.03-0.91 0.08-1.38 0.23q0 0.28 0 0.56 0.01 0.36 0.01 0.72 0 0.18 0 0.37 0 0.47-0.01 0.93c-0.35 0.34-1.09 0.23-1.57 0.25q-0.68 0.04-1.38 0.07 0 1.35 0 2.74-1.54 0-3.12 0 0 1.43 0 2.9c-0.73 0.1-1.32 0.18-2.04 0.17q-0.21 0-0.43 0c-0.16 0-0.16 0-0.32-0.01q-0.04 0.37-0.08 0.73-0.02 0.2-0.05 0.41-0.05 0.88-0.03 1.76-1.54 0-3.12 0 0 1.51 0 3.06-0.87-0.01-1.74-0.03c-0.58-0.01-0.58-0.01-1.05 0.36-0.06 0.44-0.1 0.85-0.11 1.3-0.03 0.63-0.03 0.63-0.05 1.27q-1.46 0.08-2.95 0.16c0 0.85 0 0.85 0.01 1.69q0 0.44-0.01 0.89-0.08 0.08-0.17 0.16-1.45 0-2.95 0c0 3.99 0 7.98 0 12.08q-2.67 0-5.41 0 0-0.15 0-0.32-0.41 0-0.82 0 0-1.27 0-2.58c-0.57-0.18-1.1-0.19-1.69-0.21q-0.17 0-0.35-0.01-0.56-0.01-1.11-0.03-0.38-0.01-0.75-0.02-0.92-0.02-1.84-0.05c0.02 0.29 0.02 0.29 0.05 0.58q0.03 0.38 0.06 0.76 0.02 0.19 0.04 0.39 0.01 0.18 0.02 0.37c0.02 0.16 0.02 0.16 0.03 0.34-0.04 0.3-0.04 0.3-0.25 0.58-0.34 0.25-0.51 0.26-0.94 0.25q-0.17 0-0.34 0-0.21-0.01-0.43-0.02-0.67-0.01-1.36-0.03 0 1.35 0 2.74-0.37 0.04-0.76 0.08-0.21 0.03-0.43 0.05-0.71 0.05-1.43 0.03 0 0.24 0 0.48 0.02 0.89 0.02 1.77 0.01 0.38 0.01 0.76 0.01 0.55 0.01 1.1 0.01 0.17 0.01 0.34c0 0.79 0 0.79-0.25 1.14-0.41 0.29-0.68 0.27-1.18 0.27q-0.27 0-0.55 0-0.29-0.01-0.59-0.01-0.3 0-0.6 0-0.96-0.01-1.92-0.02-0.65 0-1.29 0-1.6-0.01-3.19-0.03c-0.2-0.39-0.19-0.67-0.2-1.11-0.01-0.25-0.01-0.25-0.01-0.51q-0.01-0.26-0.02-0.54 0-0.27-0.01-0.56-0.01-0.58-0.02-1.17-0.02-0.89-0.04-1.79-0.02-0.56-0.03-1.13 0-0.27-0.01-0.54-0.01-0.25-0.01-0.51-0.01-0.22-0.01-0.44c0.04-0.43 0.13-0.68 0.36-1.04 0.49-0.24 0.98-0.18 1.51-0.18q0.17 0 0.35 0 0.56 0.01 1.12 0.01 0.37 0 0.75 0 0.92 0 1.85 0.01c0.19-0.55 0.17-0.97 0.16-1.55q-0.01-0.51 0-1.03c0.17-0.16 0.17-0.16 0.47-0.18q0.2 0 0.39 0c0.21 0.01 0.21 0.01 0.43 0.01q0.22 0 0.45 0 0.22 0 0.44 0 0.55 0.01 1.1 0.01-0.02-0.29-0.04-0.59-0.02-0.39-0.05-0.77c-0.01-0.19-0.01-0.19-0.03-0.39q-0.03-0.49-0.04-0.99c0.16-0.16 0.16-0.16 0.45-0.18q0.19 0 0.38 0.01c0.17 0 0.17 0 0.36 0 0.23 0 0.23 0 0.46 0 0.73 0.01 0.73 0.01 1.47 0.01q0-2.78 0-5.64-1.54 0-3.12 0c0.08-3.03 0.08-3.03 0.16-6.12 3.9 0 7.8 0 11.81 0q0.08-1.27 0.17-2.58-0.16-0.08-0.33-0.16 0.16 0 0.33 0 0-0.16 0-0.32 1.45 0 2.95 0c-0.01-0.94-0.01-0.94-0.02-1.88 0-0.17 0-0.17 0-0.35q0-0.18 0-0.37c0.02-0.3 0.02-0.3 0.18-0.62q1.3 0 2.63 0 0-1.27 0-2.58 1.61 0 3.28 0c-0.07-0.89-0.07-0.89-0.14-1.77q-0.03-0.48-0.03-0.97c0.47-0.45 0.94-0.4 1.56-0.43q0.17-0.01 0.35-0.02c0.84-0.05 0.84-0.05 1.21 0.13q0-0.29-0.01-0.59 0-0.39 0-0.77 0-0.19 0-0.39 0-0.49 0.01-0.99c0.35-0.34 1.09-0.23 1.57-0.25q0.2-0.01 0.4-0.02 0.49-0.03 0.98-0.05 0.08-1.11 0.17-2.26-0.16 0-0.33 0 0.08-0.31 0.16-0.64 1.54 0.08 3.12 0.16 0-1.66 0-3.38 1.29 0.16 2.62 0.32 0-0.16 0-0.32 0.17 0 0.33 0 0-1.27 0-2.58 1.54 0 3.12 0-0.08-1.43-0.17-2.9 0.17 0 0.33 0 0.08-0.16 0.17-0.32 0.08 0.08 0.16 0.16 0.54 0.06 1.08 0.09 0.29 0.02 0.59 0.04 0.23 0.02 0.46 0.03c0.23-0.67 0.23-1.35 0.27-2.05 0.04-0.83 0.04-0.83 0.22-1.01q0.42-0.02 0.84-0.01 0.22 0 0.45 0 0.18 0.01 0.35 0.01 0-0.16 0-0.32zm-1.47 3.54q0 1.35 0 2.74 1.37 0 2.79 0 0-1.35 0-2.74-1.38 0-2.79 0zm-2.95 2.9c-0.11 0.72-0.19 1.3-0.18 2.01q0.01 0.36 0.01 0.73 1.38 0 2.79 0-0.16-0.08-0.33-0.16 0.16-0.08 0.33-0.16 0-1.19 0-2.42-1.29 0-2.62 0zm-3.12 3.06q0 1.27 0 2.58c0.44 0.22 0.81 0.19 1.3 0.2q0.26 0.01 0.53 0.01c0.46-0.02 0.46-0.02 0.77-0.22 0.29-0.48 0.23-0.92 0.22-1.47q-0.02-0.54-0.03-1.1-1.38 0-2.79 0zm-6.4 2.74c0.17 0.32 0.17 0.32 0.17 0.32zm3.28 0.16q0 1.27 0 2.58c0.52 0.26 1.08 0.18 1.66 0.17 0.18 0 0.18 0 0.37 0q0.46 0 0.92-0.01 0-0.23 0-0.48 0-1.13 0-2.26-1.45 0-2.95 0zm-2.95 2.9q0 1.35 0 2.74 1.37 0 2.78 0 0-1.35 0-2.74-1.37 0-2.78 0zm-2.96 3.06q0 1.35 0 2.74 1.38 0 2.79 0 0.01-0.63 0.01-1.28 0-0.19 0.01-0.4 0-0.45-0.02-0.89c-0.19-0.23-0.19-0.23-0.75-0.18q-0.37 0-0.74 0c-0.64 0.01-0.64 0.01-1.3 0.01zm-2.95 2.9c-0.24 1.38-0.24 1.38 0 2.74q1.29 0 2.62 0-0.16-0.08-0.32-0.16 0.16-0.08 0.32-0.16 0-1.19 0-2.42-1.29 0-2.62 0zm-5.74 2.58q0 0.08 0 0.16 0.97 0 1.97 0 0-0.08 0-0.16-0.97 0-1.97 0zm2.62 0.32q0 1.35 0 2.74 1.38 0.08 2.79 0.16 0.01-0.67 0.01-1.36 0-0.21 0.01-0.42 0-0.48-0.02-0.95c-0.19-0.23-0.19-0.23-0.75-0.18q-0.37 0-0.73 0c-0.65 0.01-0.65 0.01-1.31 0.01zm-2.95 3.06q0 0.63-0.01 1.28 0 0.2 0 0.41 0 0.44 0.01 0.89c0.29 0.29 0.66 0.18 1.05 0.19q0.17-0.01 0.35-0.01 0.17 0 0.34 0.01c0.57 0.04 0.57 0.04 1.05-0.19q0.02-0.65 0.01-1.3c0-0.63 0-0.63-0.01-1.28q-1.37 0-2.79 0zm-3.11 2.9q-0.01 0.63-0.02 1.28 0 0.2 0 0.41 0 0.44 0.02 0.89c0.19 0.23 0.19 0.23 0.75 0.18q0.37 0 0.73-0.01c0.65 0 0.65 0 1.3-0.01q0-1.35 0-2.74-1.37 0-2.78 0zm-9.03 3.39q0 1.11 0 2.25c1.05 0.16 2.06 0.18 3.12 0.16q0 1.35 0 2.74c0.67 0.13 1.19 0.18 1.86 0.17 0.46 0 0.46 0 0.93-0.01 0.08 1.44 0.08 1.44 0.16 2.9q1.46 0 2.96 0c-0.02 1.36-0.02 1.36-0.02 1.79q0 0.48 0.02 0.95 0.08 0.08 0.16 0.16 1.29 0 2.62 0 0-2.77 0-5.64-1.37 0-2.78 0c-0.09-1.43-0.09-1.43-0.17-2.9q-1.45 0-2.95 0 0-1.42 0-2.89-1.07-0.02-2.13-0.02-0.36 0-0.72-0.01-0.52 0-1.04-0.01c-0.32 0-0.32 0-0.64 0-0.62 0.01-0.62 0.01-1.38 0.36zm-8.85 14.01q0 0.08 0 0.16 1.13 0 2.29 0 0-0.08 0-0.16-1.13 0-2.29 0zm1.3 3.3q-0.27 0.03-0.55 0.05c-0.21 0.02-0.21 0.02-0.43 0.04q0 0.15 0 0.32-0.16 0-0.32 0c-0.22 0.42-0.19 0.74-0.19 1.22q0 0.23 0 0.48c-0.02 0.38-0.02 0.38 0.19 0.55q0.62 0.02 1.24 0.01 0.17 0 0.35 0 0.43 0 0.87-0.01 0.05-0.5 0.09-1 0.02-0.28 0.05-0.57c0.02-0.44 0-0.75-0.14-1.17-0.39 0-0.78 0.05-1.16 0.08zm-1.3-0.08q-0.08 0.16-0.17 0.33 0.16 0 0.33 0-0.08-0.16-0.16-0.33zm5.9 2.58q0 1.51 0 3.06 0.08 0 0.17 0 0-1.5 0-3.06-0.09 0-0.17 0z"/>
		</g>
	</g>
</svg>