<svg version="1.2" xmlns="http://www.w3.org/2000/svg" viewBox="0 0 45 50" width="45" height="50">
	<style>
		.s0 { fill: #fff394 } 
	</style>
	<path id="Capa 1" fill-rule="evenodd" class="s0" d="m32.39 25h-1.3l1.11 7.33h-4.99l-1.11-7.33h-7.21l-1.11 7.33h-4.99l1.11-7.33h-1.3c-1.37 0-2.48-0.98-2.48-2.2 0-1.22 1.11-2.2 2.48-2.2-1.56-1.84-2.48-4.13-2.48-6.6 0-6.08 5.54-11 12.37-11 6.84 0 12.38 4.92 12.38 11 0 2.47-0.92 4.76-2.48 6.6 1.37 0 2.48 0.98 2.48 2.2 0 1.22-1.11 2.2-2.48 2.2zm-2.47-11c0-1.75-0.78-3.43-2.18-4.67-1.39-1.23-3.28-1.93-5.25-1.93-1.96 0-3.85 0.7-5.24 1.93-1.4 1.24-2.18 2.92-2.18 4.67 0 1.75 0.78 3.43 2.18 4.67 1.39 1.23 3.28 1.93 5.24 1.93 1.97 0 3.86-0.7 5.25-1.93 1.4-1.24 2.18-2.92 2.18-4.67zm2.95 21.27c1.23 0 2.36 0.61 2.92 1.58l2.74 4.7q0.46 0.8 0.47 1.71c0 2.06-1.88 3.74-4.21 3.74h-24.58c-2.33 0-4.21-1.67-4.21-3.74q0.01-0.91 0.47-1.71l2.74-4.7c0.55-0.97 1.69-1.58 2.92-1.58 0 0 20.73 0 20.74 0zm-21.44 7.33h22.13l-1.71-2.93h-18.72z"/>
</svg>