<svg version="1.2" xmlns="http://www.w3.org/2000/svg" viewBox="0 0 64 55" width="64" height="55">
	<style>
		.s0 { fill: #fff394 } 
	</style>
	<g>
		<path class="s0" d="m20.06 0.08c-0.07 0.05-0.11 1.22-0.11 2.57v2.46h-7.46-7.46v2.56 2.57h-2.52-2.51v17.81 17.82h2.51 2.52v2.56 2.57h24.97 24.97v-2.57-2.56h2.52 2.51v-17.82-17.81h-2.51-2.52v-2.57-2.56h-7.46-7.46l-0.03-2.54-0.05-2.52-9.91-0.05c-5.45-0.01-9.96 0.02-10 0.08zm19.99 7.59v2.57h7.46 7.46v17.81 17.82h-24.97-24.97v-17.82-17.81h7.46 7.46v-2.57-2.56h10.05 10.05z"/>
		<path class="s0" d="m10.05 15.3v2.56l2.48-0.03 2.47-0.04 0.05-2.54 0.03-2.52h-2.52-2.51z"/>
		<path class="s0" d="m22.54 17.79v2.56h-2.51-2.52l0.03 7.66 0.05 7.67h2.44 2.43l0.05-7.67 0.03-7.66h7.46 7.46l0.03 7.66 0.05 7.67h2.43 2.44l0.05-7.67 0.03-7.66h-2.52-2.51v-2.56-2.57h-7.46-7.46z"/>
		<path class="s0" d="m22.54 38.17v2.56h7.46 7.46v-2.56-2.57h-7.46-7.46z"/>
	</g>
</svg>