<svg version="1.2" xmlns="http://www.w3.org/2000/svg" viewBox="0 0 55 63" width="55" height="63">
	<style>
		.s0 { fill: #000638 } 
	</style>
	<path class="s0" d="m53.13 27.61h-0.97-1.42v-10.56h1.42 0.97c0.53 0 0.96-0.48 0.96-1.08 0-0.6-0.43-1.08-0.96-1.08h-41.49c-3.91 0-7.04 3.81-6.58 8.3 0.15 1.5 0.71 2.83 1.53 3.91q0.09 0.12 0.19 0.23 0.05 0.06 0.1 0.13 0.08 0.08 0.17 0.17c1.25 1.33 2.95 2.14 4.77 2.14h41.31c0.53 0 0.96-0.48 0.96-1.08 0-0.6-0.43-1.08-0.96-1.08zm-35.52-6.37h32.17v2.41h-28.69c-0.35 0-0.63 0.31-0.63 0.7 0 0.39 0.28 0.7 0.63 0.7h28.69v2.56h-37.98c-2.36 0-4.46-1.87-4.81-4.48-0.42-3.27 1.83-6.08 4.65-6.08h38.14v2.78h-32.17c-0.35 0-0.63 0.32-0.63 0.71 0 0.38 0.28 0.7 0.63 0.7z"/>
	<path class="s0" d="m48.11 12.72h-0.96-1.42v-10.55h1.42 0.96c0.54 0 0.97-0.49 0.97-1.09 0-0.6-0.43-1.08-0.97-1.08h-41.48c-3.91 0-7.04 3.82-6.59 8.31 0.15 1.49 0.72 2.83 1.54 3.9q0.09 0.12 0.19 0.23 0.05 0.07 0.1 0.13 0.08 0.09 0.17 0.17c1.24 1.34 2.95 2.15 4.77 2.15h41.3c0.54 0 0.97-0.49 0.97-1.09 0-0.59-0.43-1.08-0.97-1.08zm-30.99-6.37h27.65v2.41h-24.66c-0.34 0-0.62 0.32-0.62 0.7 0 0.39 0.28 0.71 0.62 0.71h24.66v2.55h-37.99c-2.35 0-4.46-1.87-4.8-4.48-0.42-3.26 1.83-6.07 4.65-6.07h38.14v2.78h-27.65c-0.35 0-0.63 0.31-0.63 0.7 0 0.39 0.28 0.7 0.63 0.7z"/>
	<path class="s0" d="m49.51 57.38h-2.38v-10.56h2.38c0.53 0 0.97-0.48 0.97-1.08q-0.01-0.46-0.29-0.76-0.27-0.31-0.68-0.32h-41.48c-3.91 0-7.04 3.82-6.59 8.31 0.15 1.48 0.71 2.81 1.53 3.88q0.24 0.34 0.53 0.62c1.24 1.29 2.92 2.07 4.71 2.07h5.97v2.14c0 0.42 0.21 0.79 0.53 0.98q0.23 0.13 0.46 0.13 0.31 0 0.57-0.2l2.25-1.72 2.21 1.72c0.3 0.24 0.7 0.27 1.02 0.07 0.33-0.19 0.54-0.56 0.54-0.98v-2.14h27.75c0.53 0 0.97-0.48 0.97-1.08q-0.01-0.46-0.29-0.76c-0.17-0.2-0.41-0.32-0.68-0.32zm-3.35 0h-24.4v-2.55h24.4v-1.41h-24.65q-0.01 0-0.03 0.01h-7.3v3.95h-6c-2.35 0-4.46-1.87-4.8-4.48-0.43-3.27 1.82-6.08 4.65-6.08h38.13zm-25.38 4.33q-0.02 0.01-0.03 0l-2.21-1.73q-0.26-0.2-0.57-0.2-0.31 0-0.57 0.2l-2.21 1.73-0.05-0.03v-2.13-0.78-1.09-0.3-2.87h5.65l-0.01 2.87v0.3 1.09 0.78z"/>
	<path class="s0" d="m18.51 51.01h27.65v-1.4h-27.65c-0.34 0-0.62 0.31-0.62 0.7 0 0.39 0.28 0.7 0.62 0.7z"/>
	<path class="s0" d="m49.71 29.23h-5.01-14.4-9.23-3.06-3.01-3.07-7.95-1.81c-0.71 0-1.25 0.72-1.25 1.64v12.62c0 0.91 0.54 1.63 1.25 1.63h1.81 7.95 3.07 3.01 3.06 9.23 14.4 5.01c0.7 0 1.25-0.72 1.25-1.63v-12.62c0-0.92-0.55-1.64-1.25-1.64zm-18.44 14.81v-13.72h12.47v13.72h-12.47zm-12.3 0v-13.72h1.14v13.72h-1.14zm-6.07 0v-13.72h1.14v13.72h-1.14zm-10.73 0c-0.14 0-0.29-0.24-0.29-0.55v-12.62c0-0.32 0.15-0.55 0.29-0.55h0.85v13.72h-0.85zm1.81 0v-13.72h7.95v13.72h-7.95zm11.02 0v-13.72h3.01v13.72h-3.01zm6.07 0v-13.72h9.23v13.72h-9.23zm28.92-0.55c0 0.31-0.15 0.55-0.28 0.55h-5.01v-13.72h5.01c0.13 0 0.28 0.23 0.28 0.55z"/>
</svg>