<svg version="1.2" xmlns="http://www.w3.org/2000/svg" viewBox="0 0 58 59" width="58" height="59">
	<style>
		.s0 { fill: none;stroke: #000638;stroke-width: 4 } 
		.s1 { fill: #000638 } 
	</style>
	<path fill-rule="evenodd" class="s0" d="m29 2c14.91 0 27 12.09 27 27v1c0 14.91-12.09 27-27 27-14.91 0-27-12.09-27-27v-1c0-14.91 12.09-27 27-27z"/>
	<path fill-rule="evenodd" class="s1" d="m37.7 23.6c0 4.89-3.9 8.85-8.7 8.85-4.81 0-8.7-3.96-8.7-8.85 0-4.89 3.89-8.85 8.7-8.85 4.8 0 8.7 3.96 8.7 8.85zm-8.7-5.9c-3.2 0-5.8 2.64-5.8 5.9 0 3.26 2.6 5.9 5.8 5.9 3.2 0 5.8-2.64 5.8-5.9 0-3.26-2.6-5.9-5.8-5.9z"/>
	<path class="s1" d="m29 36.88c-9.39-0.01-17.39 5.64-20.43 13.55q1.11 1.13 2.34 2.13c2.27-7.27 9.39-12.73 18.09-12.73 8.7 0 15.82 5.46 18.09 12.73q1.23-1 2.34-2.13c-3.04-7.91-11.04-13.56-20.43-13.56z"/>
</svg>