<?xml version="1.0" standalone="no"?>
<!DOCTYPE svg PUBLIC "-//W3C//DTD SVG 20010904//EN"
 "http://www.w3.org/TR/2001/REC-SVG-20010904/DTD/svg10.dtd">
<svg version="1.0" xmlns="http://www.w3.org/2000/svg"
 width="60.000000pt" height="60.000000pt" viewBox="0 0 60.000000 60.000000"
 preserveAspectRatio="xMidYMid meet">

<g transform="translate(0.000000,60.000000) scale(0.100000,-0.100000)"
fill="currentColor" stroke="none">
<path d="M30 570 c0 -20 -5 -30 -15 -30 -13 0 -15 -37 -15 -270 l0 -270 265 0
c229 0 265 2 265 15 0 10 11 15 35 15 l35 0 0 285 0 285 -285 0 -285 0 0 -30z
m540 -255 c0 -248 -1 -255 -20 -255 -19 0 -20 7 -20 240 l0 240 -230 0 c-198
0 -230 2 -230 15 0 13 34 15 250 15 l250 0 0 -255z m-70 -45 l0 -240 -235 0
-235 0 0 240 0 240 235 0 235 0 0 -240z"/>
<path d="M200 435 c0 -8 -7 -15 -15 -15 -12 0 -15 -15 -15 -75 0 -60 3 -75 15
-75 8 0 15 -7 15 -15 0 -10 -11 -15 -35 -15 -24 0 -35 -5 -35 -15 0 -8 -7 -15
-15 -15 -12 0 -15 -13 -15 -60 l0 -60 165 0 165 0 0 60 c0 47 -3 60 -15 60 -8
0 -15 7 -15 15 0 10 -11 15 -35 15 -24 0 -35 5 -35 15 0 8 7 15 15 15 12 0 15
15 15 75 0 60 -3 75 -15 75 -8 0 -15 7 -15 15 0 12 -14 15 -65 15 -51 0 -65
-3 -65 -15z"/>
</g>
</svg>
