<svg version="1.2" xmlns="http://www.w3.org/2000/svg" viewBox="0 0 120 131" width="120" height="131">
	<style>
		.s0 { fill: #000000 } 
	</style>
	<g>
		<path class="s0" d="m24 6v4h-12-12v16c0 15.3 0.1 16 2 16 1.7 0 2 0.7 2 4 0 3.3 0.3 4 2 4 1.3 0 2 0.7 2 2 0 1.3 0.7 2 2 2 1.3 0 2 0.7 2 2 0 1.3 0.7 2 2 2 1.3 0 2 0.7 2 2 0 1.7 0.7 2 4 2 3.3 0 4 0.3 4 2 0 1.7 0.7 2 4 2 3.3 0 4 0.3 4 2 0 1.7 0.7 2 4 2 3.3 0 4 0.3 4 2 0 1.3 0.7 2 2 2 1.9 0 2 0.7 2 16 0 15.3-0.1 16-2 16-1.3 0-2 0.7-2 2 0 1.3-0.7 2-2 2-1.3 0-2 0.7-2 2 0 1.7-0.7 2-4 2-3.3 0-4 0.3-4 2 0 1.3-0.7 2-2 2-1.8 0-2 0.7-2 6v6h36 36v-6c0-5.3-0.2-6-2-6-1.3 0-2-0.7-2-2 0-1.7-0.7-2-4-2-3.3 0-4-0.3-4-2 0-1.3-0.7-2-2-2-1.3 0-2-0.7-2-2 0-1.3-0.7-2-2-2-1.9 0-2-0.7-2-16 0-15.3 0.1-16 2-16 1.3 0 2-0.7 2-2 0-1.7 0.7-2 4-2 3.3 0 4-0.3 4-2 0-1.7 0.7-2 4-2 3.3 0 4-0.3 4-2 0-1.7 0.7-2 4-2 3.3 0 4-0.3 4-2 0-1.3 0.7-2 2-2 1.3 0 2-0.7 2-2 0-1.3 0.7-2 2-2 1.3 0 2-0.7 2-2 0-1.3 0.7-2 2-2 1.7 0 2-0.7 2-4 0-3.3 0.3-4 2-4 1.9 0 2-0.7 2-16v-16h-12-12v-4-4h-36-36zm68 4v4h12 12v14c0 13.3-0.1 14-2 14-1.7 0-2 0.7-2 4 0 3.3-0.3 4-2 4-1.3 0-2 0.7-2 2 0 1.3-0.7 2-2 2-1.3 0-2 0.7-2 2 0 1.7-0.7 2-4 2-3.3 0-4 0.3-4 2 0 1.7-0.7 2-4 2-3.3 0-4 0.3-4 2 0 1.7-0.7 2-4 2-3.3 0-4 0.3-4 2 0 1.3-0.7 2-2 2-1.3 0-2 0.7-2 2 0 1.3-0.7 2-2 2-1.9 0-2 0.7-2 16v16h-12-12v-16c0-15.3-0.1-16-2-16-1.3 0-2-0.7-2-2 0-1.3-0.7-2-2-2-1.3 0-2-0.7-2-2 0-1.7-0.7-2-4-2-3.3 0-4-0.3-4-2 0-1.7-0.7-2-4-2-3.3 0-4-0.3-4-2 0-1.7-0.7-2-4-2-3.3 0-4-0.3-4-2 0-1.3-0.7-2-2-2-1.3 0-2-0.7-2-2 0-1.3-0.7-2-2-2-1.7 0-2-0.7-2-4 0-3.3-0.3-4-2-4-1.9 0-2-0.7-2-14v-14h12 12v-4-4h32 32zm-12 102c0 1.9-0.7 2-20 2-19.3 0-20-0.1-20-2 0-1.9 0.7-2 20-2 19.3 0 20 0.1 20 2zm12 10v4h-32-32v-4-4h32 32z"/>
		<path class="s0" d="m8 28c0 9.3 0.1 10 2 10 1.7 0 2 0.7 2 4 0 3.3 0.3 4 2 4 1.3 0 2 0.7 2 2 0 1.3 0.7 2 2 2 1.3 0 2 0.7 2 2 0 1.7 0.7 2 4 2h4v-18-18h-10-10zm16 8c0 13.3-0.1 14-2 14-1.3 0-2-0.7-2-2 0-1.3-0.7-2-2-2-1.7 0-2-0.7-2-4 0-3.3-0.3-4-2-4-1.8 0-2-0.7-2-8v-8h6 6z"/>
		<path class="s0" d="m92 36v18h4c3.3 0 4-0.3 4-2 0-1.3 0.7-2 2-2 1.3 0 2-0.7 2-2 0-1.3 0.7-2 2-2 1.7 0 2-0.7 2-4 0-3.3 0.3-4 2-4 1.9 0 2-0.7 2-10v-10h-10-10zm16-6c0 7.3-0.2 8-2 8-1.7 0-2 0.7-2 4 0 3.3-0.3 4-2 4-1.3 0-2 0.7-2 2 0 1.3-0.7 2-2 2-1.9 0-2-0.7-2-14v-14h6 6z"/>
	</g>
</svg>